<svg xmlns="http://www.w3.org/2000/svg">
  <symbol id="ico_arrow" viewBox="0 0 16 22">
    <path d="M8.5,18V0h-1v18c-1.4-2.7-4.3-4.5-7.5-4.5v1c4.1,0,7.5,3.4,7.5,7.5h1c0-4.1,3.4-7.5,7.5-7.5v-1C12.8,13.5,9.9,15.3,8.5,18z"/>
  </symbol>
  <symbol id="ico_instagram" viewBox="0 0 15 15">
    <path d="M7.5 1.35188C9.5025 1.35188 9.74 1.35938 10.5313 1.39563C12.5638 1.48813 13.5131 2.4525 13.6056 4.47C13.6419 5.26062 13.6487 5.49813 13.6487 7.50063C13.6487 9.50375 13.6412 9.74063 13.6056 10.5313C13.5125 12.5469 12.5656 13.5131 10.5313 13.6056C9.74 13.6419 9.50375 13.6494 7.5 13.6494C5.4975 13.6494 5.26 13.6419 4.46938 13.6056C2.43188 13.5125 1.4875 12.5438 1.395 10.5306C1.35875 9.74 1.35125 9.50312 1.35125 7.5C1.35125 5.4975 1.35938 5.26063 1.395 4.46938C1.48813 2.4525 2.435 1.4875 4.46938 1.395C5.26063 1.35938 5.4975 1.35188 7.5 1.35188V1.35188ZM7.5 0C5.46312 0 5.20812 0.00875 4.40812 0.045C1.68438 0.17 0.170625 1.68125 0.045625 4.4075C0.00875 5.20813 0 5.46312 0 7.5C0 9.53688 0.00875 9.7925 0.045 10.5925C0.17 13.3162 1.68125 14.83 4.4075 14.955C5.20813 14.9912 5.46312 15 7.5 15C9.53688 15 9.7925 14.9912 10.5925 14.955C13.3138 14.83 14.8313 13.3187 14.9544 10.5925C14.9913 9.7925 15 9.53688 15 7.5C15 5.46312 14.9912 5.20812 14.955 4.40812C14.8325 1.68687 13.3194 0.170625 10.5931 0.045625C9.7925 0.00875 9.53688 0 7.5 0V0ZM7.5 3.64875C5.37312 3.64875 3.64875 5.37312 3.64875 7.5C3.64875 9.62688 5.37312 11.3519 7.5 11.3519C9.62688 11.3519 11.3513 9.6275 11.3513 7.5C11.3513 5.37312 9.62688 3.64875 7.5 3.64875ZM7.5 10C6.11937 10 5 8.88125 5 7.5C5 6.11937 6.11937 5 7.5 5C8.88063 5 10 6.11937 10 7.5C10 8.88125 8.88063 10 7.5 10ZM11.5038 2.59688C11.0063 2.59688 10.6031 3 10.6031 3.49687C10.6031 3.99375 11.0063 4.39687 11.5038 4.39687C12.0006 4.39687 12.4031 3.99375 12.4031 3.49687C12.4031 3 12.0006 2.59688 11.5038 2.59688Z" />
  </symbol>
  <symbol id="ico_tiktok" viewBox="0 0 13 15">
    <path d="M11.256 3.20797C11.1559 3.15564 11.0584 3.09828 10.964 3.0361C10.6893 2.8525 10.4375 2.63617 10.214 2.39176C9.65461 1.7446 9.4457 1.08807 9.36875 0.628406H9.37184C9.30756 0.246863 9.33414 0 9.33816 0H6.79047V9.96138C6.79047 10.0951 6.79047 10.2273 6.78491 10.3579C6.78491 10.3742 6.78336 10.3892 6.78243 10.4067C6.78243 10.4139 6.78243 10.4214 6.78089 10.4289C6.78089 10.4307 6.78089 10.4326 6.78089 10.4345C6.75403 10.7919 6.64073 11.1372 6.45093 11.4399C6.26114 11.7426 6.00068 11.9936 5.69247 12.1706C5.37124 12.3554 5.00792 12.4524 4.63835 12.4519C3.45134 12.4519 2.48931 11.4732 2.48931 10.2645C2.48931 9.0558 3.45134 8.0771 4.63835 8.0771C4.86304 8.07689 5.08635 8.11264 5.29999 8.18303L5.30308 5.56003C4.65453 5.47532 3.99565 5.52744 3.36802 5.7131C2.74038 5.89876 2.15761 6.21393 1.65646 6.63873C1.21735 7.02452 0.848176 7.48484 0.565569 7.99898C0.458025 8.18647 0.0522616 8.93987 0.00312492 10.1626C-0.0277786 10.8566 0.178348 11.5757 0.276621 11.8728V11.8791C0.338428 12.0541 0.577931 12.6512 0.968242 13.1547C1.28298 13.5585 1.65482 13.9132 2.07181 14.2074V14.2012L2.07799 14.2074C3.31135 15.0549 4.67883 14.9993 4.67883 14.9993C4.91555 14.9896 5.70854 14.9993 6.60907 14.5677C7.60787 14.0893 8.17649 13.3765 8.17649 13.3765C8.53976 12.9506 8.82862 12.4653 9.03067 11.9413C9.26121 11.3285 9.33816 10.5935 9.33816 10.2998V5.01506C9.36906 5.03381 9.7807 5.30911 9.7807 5.30911C9.7807 5.30911 10.3737 5.69347 11.299 5.94377C11.9628 6.12188 12.8571 6.15938 12.8571 6.15938V3.60201C12.5438 3.63638 11.9075 3.53639 11.256 3.20797Z" />
  </symbol>
  <symbol id="ico_heart" viewBox="0 0 11.74 10.4">
    <path d="M10.76,1C10.12,.36,9.27,0,8.37,0s-1.75,.35-2.39,.99l-.11,.11-.11-.11c-.64-.64-1.49-.99-2.39-.99S1.63,.35,.99,.99s-.99,1.49-.99,2.39,.35,1.75,.99,2.39l4.46,4.46c.11,.11,.26,.17,.42,.17s.31-.06,.42-.17l4.45-4.45c.64-.64,.99-1.49,.99-2.39s-.35-1.75-.99-2.39Zm-4.47,1.39l.55-.55c.41-.41,.96-.64,1.54-.64s1.13,.23,1.54,.64c.41,.41,.64,.96,.64,1.54,0,.58-.23,1.13-.64,1.54l-4.03,4.03L1.84,4.91c-.41-.41-.64-.96-.64-1.54,0-.58,.23-1.13,.63-1.54,.41-.41,.96-.64,1.54-.64s1.13,.23,1.54,.64l.54,.54c.23,.22,.6,.23,.84,.01Z"/>
  </symbol>
  <!-- <symbol id="ico_heart" viewBox="0 0 50 50">
    <path d="m45.03,7.81c-2.62-2.62-6.1-4.09-9.78-4.09s-7.16,1.43-9.78,4.05l-.45.45-.45-.45c-2.62-2.62-6.1-4.05-9.78-4.05s-7.12,1.43-9.74,4.05c-2.62,2.62-4.05,6.1-4.05,9.78s1.43,7.16,4.05,9.78l18.25,18.25c.45.45,1.06.7,1.72.7s1.27-.25,1.72-.7l18.21-18.21c2.62-2.62,4.05-6.1,4.05-9.78s-1.43-7.16-4.05-9.78h.08Z"/>
    <path d="m45.03,7.81c-2.62-2.62-6.1-4.09-9.78-4.09s-7.16,1.43-9.78,4.05l-.45.45-.45-.45c-2.62-2.62-6.1-4.05-9.78-4.05s-7.12,1.43-9.74,4.05c-2.62,2.62-4.05,6.1-4.05,9.78s1.43,7.16,4.05,9.78l18.25,18.25c.45.45,1.06.7,1.72.7s1.27-.25,1.72-.7l18.21-18.21c2.62-2.62,4.05-6.1,4.05-9.78s-1.43-7.16-4.05-9.78h.08Zm-18.29,5.69l2.25-2.25c1.68-1.68,3.93-2.62,6.3-2.62s4.62.94,6.3,2.62c1.68,1.68,2.62,3.93,2.62,6.3s-.94,4.62-2.62,6.3l-16.49,16.49L8.53,23.81c-1.68-1.68-2.62-3.93-2.62-6.3s.94-4.62,2.58-6.3c1.68-1.68,3.93-2.62,6.3-2.62s4.62.94,6.3,2.62l2.21,2.21c.94.9,2.46.94,3.44.04v.04Z"/>
  </symbol> -->
  <symbol id="ico_arrowRight" viewBox="0 0 15 11.91">
    <path d="m14.5,5.45h-.05c-2.73,0-4.95-2.22-4.95-4.95,0-.28-.22-.5-.5-.5s-.5.22-.5.5c0,2.06,1.06,3.89,2.66,4.95H.5c-.28,0-.5.22-.5.5s.22.5.5.5h10.66c-1.6,1.07-2.66,2.89-2.66,4.96,0,.28.22.5.5.5s.5-.22.5-.5c0-2.73,2.22-4.96,4.95-4.96h.05c.28,0,.5-.22.5-.5s-.22-.5-.5-.5Z"/>
  </symbol>
  <symbol id="ico_arrowBottom" viewBox="0 0 18 22">
    <path d="M17.5,12.5c-3.24,0-6.07,1.83-7.5,4.51V1c0-.55-.45-1-1-1s-1,.45-1,1V17.01c-1.43-2.68-4.26-4.51-7.5-4.51-.28,0-.5,.22-.5,.5s.22,.5,.5,.5c4.14,0,7.5,3.36,7.5,7.5,0,.07,.01,.13,.04,.19,.09,.46,.48,.81,.96,.81s.87-.35,.96-.81c.01-.07,.04-.13,.04-.19,0-4.14,3.36-7.5,7.5-7.5,.28,0,.5-.22,.5-.5s-.22-.5-.5-.5Z"/>
  </symbol>
  <symbol id="ico_arrowTop" viewBox="0 0 10.74 12">
    <path d="M10.24,4.86c-2.13,0-3.86-1.73-3.86-3.86,0-.07-.02-.14-.05-.21-.1-.45-.48-.79-.96-.79s-.86,.34-.96,.79c-.03,.06-.05,.13-.05,.21,0,2.13-1.73,3.86-3.86,3.86-.28,0-.5,.22-.5,.5s.22,.5,.5,.5c1.58,0,2.98-.77,3.87-1.95v7.09c0,.55,.45,1,1,1s1-.45,1-1V3.91c.89,1.18,2.29,1.95,3.87,1.95,.28,0,.5-.22,.5-.5s-.22-.5-.5-.5Z"/>
  </symbol>
  <symbol id="ico_frame" viewBox="0 0 43 33">
    <path d="M36.7,4.83C32.64,1.72,27.24,0,21.5,0S10.36,1.72,6.3,4.83C2.24,7.95,0,12.09,0,16.5s2.24,8.55,6.3,11.67c4.06,3.12,9.46,4.83,15.2,4.83s11.14-1.72,15.2-4.83c4.06-3.12,6.3-7.26,6.3-11.67s-2.24-8.55-6.3-11.67ZM2,16.5C2,7.95,10.75,1,21.5,1s19.5,6.95,19.5,15.5-8.75,15.5-19.5,15.5S2,25.05,2,16.5Z"/>
  </symbol>
  <symbol id="ico_home" viewBox="0 0 50 50">
    <polygon points="2 22.7 24 2.7 46 22.7 46 46.7 31 46.7 31 33.7 17 33.7 17 46.7 2 46.7 2 22.7"/>
  </symbol>
  <symbol id="ico_search" viewBox="0 0 50 50">
    <circle cx="21.5" cy="21.5" r="17.5"/>
    <line x1="34" y1="34" x2="47" y2="47"/>
  </symbol>
  <symbol id="ico_article" viewBox="0 0 50 50">
    <rect x="13" y="3" width="31" height="37"/>
    <polyline points="6 9 6 47 40 47"/>
    <line x1="18" y1="10" x2="39" y2="10"/>
    <line x1="18" y1="17" x2="39" y2="17"/>
    <line x1="18" y1="24" x2="39" y2="24"/>
  </symbol>
  <symbol id="ico_qualification" viewBox="0 0 50 50">
    <polygon points="25 4 4 17.5 25 31 46 17.5 25 4"/>
    <line x1="43" y1="20" x2="43" y2="32"/>
    <path d="m25,39l-12-7.7v9.7s3,6,12,6,12-6,12-6v-9.7l-12,7.7Z"/>
  </symbol>
  <symbol id="ico_compass" viewBox="0 0 50 50">
    <circle cx="25" cy="25" r="22"/>
    <g>
      <path d="m24,25s0-.03,0-.04c0,.01,0,.03,0,.04h0Z"/>
      <path d="m26,25h0s0-.03,0-.04c0,.01,0,.03,0,.04Z"/>
      <path d="m19.45,19.45l-6.93,18.03,18.03-6.93,6.93-18.03-18.03,6.93Zm5.55,8.55c-1.65,0-3-1.35-3-3s1.35-3,3-3,3,1.35,3,3-1.35,3-3,3Z"/>
    </g>
  </symbol>
  <symbol id="ico_bell" viewBox="0 0 50 50">
    <path d="m15,38h20s-2,9-10,9-10-9-10-9Z"/>
    <path d="m41,15s-3-12-16-12S9,15,9,15l-4,23h40l-4-23Z"/>
  </symbol>
  <symbol id="ico_sort" viewBox="0 0 50 50">
    <path d="m28.65,39c-.83-2.33-3.04-4-5.65-4s-4.82,1.67-5.65,4H3v4h14.35c.83,2.33,3.04,4,5.65,4s4.82-1.67,5.65-4h18.35v-4h-18.35Zm-7.65,2c0-1.1.9-2,2-2s2,.9,2,2-.9,2-2,2-2-.9-2-2Z"/>
    <path d="m38.65,23c-.83-2.33-3.04-4-5.65-4s-4.82,1.67-5.65,4H3v4h24.35c.83,2.33,3.04,4,5.65,4s4.82-1.67,5.65-4h8.35v-4h-8.35Zm-5.66,4c-1.1,0-1.99-.9-1.99-2s.9-2,2-2,2,.9,2,2-.89,1.99-1.99,2h-.02Z"/>
    <path d="m23.65,7c-.83-2.33-3.04-4-5.65-4s-4.82,1.67-5.65,4H3v4h9.35c.83,2.33,3.04,4,5.65,4s4.82-1.67,5.65-4h23.35v-4h-23.35Zm-7.65,2c0-1.1.9-2,2-2s2,.9,2,2-.9,2-2,2-2-.9-2-2Z"/>
  </symbol>
  <symbol id="ico_close" viewBox="0 0 15 15">
    <path fill-rule="evenodd" clip-rule="evenodd" d="M0.292893 0.292893C0.683417 -0.0976311 1.31658 -0.0976311 1.70711 0.292893L14.7071 13.2929C15.0976 13.6834 15.0976 14.3166 14.7071 14.7071C14.3166 15.0976 13.6834 15.0976 13.2929 14.7071L0.292893 1.70711C-0.0976311 1.31658 -0.0976311 0.683417 0.292893 0.292893Z" />
    <path fill-rule="evenodd" clip-rule="evenodd" d="M0.292893 14.7071C-0.0976311 14.3166 -0.0976311 13.6834 0.292893 13.2929L13.2929 0.292907C13.6834 -0.0976186 14.3166 -0.0976176 14.7071 0.292907C15.0976 0.683431 15.0976 1.31659 14.7071 1.70712L1.70711 14.7071C1.31658 15.0976 0.683417 15.0976 0.292893 14.7071Z" />
  </symbol>
  <symbol id="ico_share" viewBox="0 0 50 50">
    <polygon stroke-linejoin="round" points="47 6 24 44 19 22 3 6 47 6"/>
    <line stroke-miterlimit="10" x1="19" y1="22" x2="47" y2="6"/>
  </symbol>
</svg>